<svg version="1.1" id="Layer_1" xmlns="http://www.w3.org/2000/svg" xmlns:xlink="http://www.w3.org/1999/xlink" x="0px" y="0px"
	 width="100%" viewBox="0 0 1900 1900" enable-background="new 0 0 1900 1900" xml:space="preserve">
<path fill="#FFFFFF" opacity="1.000000" stroke="none" 
	d="
M876.000000,1901.000000 
	C584.000000,1901.000000 292.500000,1901.000000 1.000000,1901.000000 
	C1.000000,1267.666626 1.000000,634.333313 1.000000,1.000000 
	C634.333313,1.000000 1267.666626,1.000000 1901.000000,1.000000 
	C1901.000000,634.333313 1901.000000,1267.666626 1901.000000,1901.000000 
	C1559.500000,1901.000000 1218.000000,1901.000000 876.000000,1901.000000 
M741.648438,1255.909302 
	C741.690247,1255.286865 741.732056,1254.664429 741.943298,1253.113159 
	C741.947510,1226.070923 741.951721,1199.028687 742.881226,1171.788086 
	C751.633728,1171.788086 760.386292,1171.788086 769.180420,1171.788086 
	C769.180420,1166.141846 769.180420,1161.200439 769.180420,1156.400146 
	C744.362183,1156.400146 719.802612,1156.400146 695.458557,1156.400146 
	C695.458557,1161.706055 695.458557,1166.603149 695.458557,1172.074707 
	C704.812622,1172.074707 713.785645,1172.074707 722.696899,1173.000854 
	C722.681458,1199.479980 722.648193,1225.959106 722.708008,1252.438110 
	C722.710754,1253.653564 723.550659,1254.867065 724.926880,1256.210205 
	C729.951172,1256.160156 734.975464,1256.110107 740.506958,1256.203613 
	C740.671326,1256.141357 740.835632,1256.079102 741.648438,1255.909302 
M935.013672,1157.123535 
	C933.565552,1156.751099 932.120422,1156.070068 930.668823,1156.056030 
	C920.842773,1155.960571 911.015320,1156.006226 901.188354,1156.006226 
	C892.741821,1156.006226 884.295349,1156.006226 875.730042,1156.006226 
	C875.730042,1189.655396 875.730042,1222.832886 875.730042,1255.883301 
	C895.954712,1255.883301 915.827393,1255.883301 935.523071,1255.883301 
	C935.523071,1250.431274 935.523071,1245.348877 935.523071,1239.857666 
	C921.751526,1239.857666 908.328552,1239.857666 895.022461,1239.857666 
	C895.022461,1230.529541 895.022461,1221.634766 895.022461,1212.343750 
	C908.175964,1212.343750 920.949951,1212.343750 933.698486,1212.343750 
	C933.698486,1207.001953 933.698486,1202.073242 933.698486,1196.765381 
	C920.685425,1196.765381 907.918640,1196.765381 894.920166,1196.765381 
	C894.920166,1188.465698 894.920166,1180.550293 894.920166,1172.222046 
	C907.151794,1172.222046 919.106995,1172.259277 931.061157,1172.168945 
	C932.365723,1172.159058 933.664673,1171.413574 935.039856,1170.086182 
	C934.999268,1166.057495 934.958618,1162.028931 935.013672,1157.123535 
M586.203857,1196.875977 
	C574.127014,1196.875977 562.050171,1196.875977 549.945984,1196.875977 
	C549.945984,1188.245239 549.945984,1180.344116 549.945984,1172.218018 
	C563.457458,1172.218018 576.595032,1172.218018 589.824463,1172.218018 
	C589.824463,1166.758911 589.824463,1161.538696 589.824463,1156.244019 
	C569.948303,1156.244019 550.373230,1156.244019 530.557068,1156.244019 
	C530.557068,1189.572388 530.557068,1222.662109 530.557068,1256.000977 
	C550.541138,1256.000977 570.469604,1256.000977 590.462769,1256.000977 
	C590.462769,1250.650879 590.462769,1245.444580 590.462769,1239.828735 
	C576.686096,1239.828735 563.273132,1239.828735 549.211304,1239.828735 
	C549.211304,1230.949585 549.211304,1222.486694 549.375427,1213.576538 
	C549.375427,1213.576538 549.316284,1213.103760 549.697205,1212.989258 
	C549.938538,1212.834961 550.073242,1212.615234 551.021851,1212.424683 
	C562.700012,1212.356689 574.378113,1212.288696 586.622314,1212.437988 
	C587.319397,1211.625244 588.016418,1210.812500 588.882751,1209.087769 
	C588.891968,1205.858887 589.029541,1202.621826 588.822266,1199.406982 
	C588.768860,1198.579346 587.630066,1197.821777 586.203857,1196.875977 
M1205.843384,953.547974 
	C1204.596436,946.498352 1207.563843,941.622070 1212.629272,936.663391 
	C1237.638184,912.181519 1262.283813,887.327148 1286.880249,862.428955 
	C1288.713013,860.573730 1290.099243,857.345032 1290.104370,854.751709 
	C1290.270630,770.752625 1290.241333,686.753235 1290.241211,602.753845 
	C1290.241211,600.980042 1290.241333,599.206299 1290.241333,597.340332 
	C1040.939819,597.340332 792.221558,597.340332 543.320862,597.340332 
	C543.247986,598.476135 543.151001,599.284729 543.150757,600.093384 
	C543.141785,624.759827 542.924438,649.429626 543.298645,674.090393 
	C543.389099,680.052429 545.344971,686.004822 546.612915,691.925293 
	C547.979919,698.308167 549.386047,704.691650 551.084045,710.991577 
	C552.156433,714.970276 552.651794,720.315369 555.406860,722.388672 
	C562.028198,727.371460 569.900757,730.663513 577.128662,734.877502 
	C582.405273,737.953796 587.429016,741.460571 592.619141,744.689270 
	C601.880859,750.450867 610.985474,756.514221 620.572632,761.677307 
	C624.052429,763.551208 625.461365,765.072510 625.427063,769.008789 
	C625.241333,790.340332 625.274658,811.674805 625.440186,833.006714 
	C625.456238,835.068970 626.310364,838.204590 627.772766,838.993835 
	C635.145691,842.972595 642.549255,847.414795 650.515930,849.636169 
	C659.666626,852.187500 669.432068,852.494446 678.904236,853.947449 
	C683.956177,854.722351 689.706726,857.906311 693.813110,856.394226 
	C701.733154,853.477844 705.841431,858.576355 711.224426,861.500183 
	C712.809204,862.360962 714.388733,863.252014 716.042847,863.960815 
	C723.777832,867.275208 731.981873,869.768982 739.193726,873.971008 
	C752.789612,881.892822 766.704895,889.697205 778.846130,899.568909 
	C792.165222,910.398438 804.432800,922.809692 815.717285,935.785217 
	C832.682800,955.293030 845.271484,977.682922 853.766724,1002.207397 
	C858.021362,1014.489807 861.388794,1027.201660 869.975220,1037.395874 
	C871.992859,1039.791382 875.724609,1042.968384 878.046997,1042.526123 
	C894.913086,1039.314087 911.603149,1035.189087 928.384399,1031.515137 
	C937.744446,1029.466064 947.153687,1027.620850 956.588867,1025.956421 
	C958.129883,1025.684570 960.102295,1026.518433 961.566467,1027.371338 
	C969.953491,1032.256836 978.114807,1037.350830 987.601257,1040.255859 
	C997.987488,1043.436401 1008.475037,1046.935059 1018.057129,1051.943115 
	C1033.009766,1059.757935 1047.222290,1068.985840 1061.797607,1077.531250 
	C1063.010742,1078.242432 1064.595703,1078.623657 1066.012329,1078.635376 
	C1076.844849,1078.724976 1087.679565,1078.762085 1098.510498,1078.602417 
	C1100.146973,1078.578247 1102.258667,1077.904907 1103.320557,1076.761230 
	C1117.407959,1061.589233 1133.797241,1048.680542 1145.433716,1031.048584 
	C1154.024414,1018.031738 1164.765625,1006.443359 1174.350708,994.065247 
	C1176.205688,991.669861 1178.057007,990.807373 1180.999634,990.875610 
	C1189.112793,991.063904 1197.233154,990.940735 1205.843262,990.940735 
	C1205.843262,978.441650 1205.843262,966.488159 1205.843384,953.547974 
M513.688477,1158.705444 
	C512.910461,1157.805908 512.174988,1156.176758 511.347321,1156.128418 
	C506.921661,1155.870361 502.472961,1156.006714 497.727600,1156.006714 
	C496.732422,1182.491333 495.756287,1208.468750 494.722717,1235.975342 
	C493.870941,1233.862549 493.524780,1233.165894 493.303741,1232.431641 
	C489.466614,1219.683594 485.656433,1206.927490 481.815277,1194.180786 
	C479.524139,1186.577515 479.501556,1186.735718 471.556580,1186.573364 
	C468.562073,1186.512085 467.209534,1187.332031 466.341614,1190.316772 
	C462.392120,1203.898804 458.174896,1217.402954 454.032928,1230.928711 
	C453.629120,1232.247559 453.081238,1233.522339 452.600220,1234.817505 
	C452.375366,1234.755005 452.150513,1234.692383 451.925659,1234.629883 
	C450.949127,1208.552490 449.972595,1182.475220 448.997040,1156.424194 
	C443.214325,1156.424194 437.854340,1156.424194 432.352722,1156.424194 
	C434.230103,1189.902100 436.083618,1222.954590 437.950195,1256.240234 
	C439.892029,1256.240234 441.373322,1256.257568 442.854065,1256.237183 
	C448.166473,1256.164062 454.985840,1258.051392 458.379974,1255.458984 
	C461.991058,1252.700806 462.467743,1245.730103 464.116913,1240.536499 
	C466.913086,1231.730469 469.555237,1222.875732 472.475494,1213.344971 
	C477.104401,1228.143921 481.504333,1242.210815 485.825989,1256.027588 
	C493.563263,1256.027588 500.670776,1256.027588 508.106049,1256.027588 
	C509.951050,1223.763550 511.784851,1191.695557 513.688477,1158.705444 
M1010.198242,1160.197388 
	C993.203796,1153.114868 975.427002,1157.191162 957.809937,1155.844116 
	C957.809937,1189.638672 957.809937,1222.740967 957.809937,1255.936401 
	C964.078735,1255.936401 970.144348,1255.936401 976.622009,1255.936401 
	C976.622009,1242.223511 976.622009,1228.800781 976.622009,1215.445068 
	C985.670410,1214.168091 990.661621,1216.752197 994.196472,1224.560791 
	C998.449768,1233.956421 1002.499023,1243.444336 1006.773132,1252.830200 
	C1007.374268,1254.150269 1008.708252,1256.048950 1009.773621,1256.096680 
	C1016.488037,1256.396240 1023.222473,1256.248535 1030.379395,1256.248535 
	C1025.351562,1245.746216 1020.693787,1235.995605 1016.016174,1226.254395 
	C1012.801453,1219.559570 1009.918091,1212.624023 1002.599792,1208.451782 
	C1013.989136,1205.736816 1021.407043,1199.758179 1022.885742,1188.384766 
	C1024.382690,1176.870483 1021.943115,1166.774536 1010.198242,1160.197388 
M820.498413,1212.487549 
	C825.257385,1212.487549 830.016418,1212.487549 835.148987,1212.487549 
	C835.148987,1227.371704 835.148987,1241.619751 835.148987,1255.968994 
	C841.627258,1255.968994 847.704651,1255.968994 853.798706,1255.968994 
	C853.798706,1222.622314 853.798706,1189.549683 853.798706,1156.329834 
	C847.525940,1156.329834 841.487671,1156.329834 834.989502,1156.329834 
	C834.989502,1169.708984 834.989502,1182.771240 834.989502,1195.852417 
	C823.463867,1195.852417 812.405884,1195.852417 800.911621,1195.852417 
	C800.911621,1182.494507 800.911621,1169.428833 800.911621,1156.379883 
	C794.427246,1156.379883 788.389282,1156.379883 782.385620,1156.379883 
	C782.385620,1189.805542 782.385620,1222.857422 782.385620,1255.922607 
	C788.708618,1255.922607 794.767456,1255.922607 801.196045,1255.922607 
	C801.196045,1241.343384 801.196045,1227.080688 801.196045,1212.487305 
	C807.545715,1212.487305 813.522156,1212.487305 820.498413,1212.487549 
M671.924133,1199.435669 
	C667.992798,1186.198364 663.948486,1172.992676 660.215881,1159.699585 
	C659.366150,1156.673096 658.023254,1155.832520 655.045288,1155.940552 
	C648.890747,1156.164062 642.713867,1156.200317 636.563354,1155.927124 
	C633.462952,1155.789429 632.282471,1156.829224 631.444702,1159.773315 
	C627.119263,1174.972900 622.533203,1190.098389 618.047363,1205.252441 
	C613.063171,1222.090332 608.088928,1238.931152 603.022949,1256.066650 
	C609.452454,1256.066650 615.398743,1256.066650 621.706543,1256.066650 
	C623.236633,1250.704224 624.864746,1245.313721 626.287048,1239.869507 
	C626.925476,1237.425903 628.024841,1236.392212 630.732178,1236.441162 
	C640.222900,1236.612427 649.722229,1236.379761 659.208496,1236.647339 
	C660.579041,1236.685913 662.633362,1238.363403 663.108521,1239.723633 
	C665.005676,1245.155640 666.404053,1250.761841 667.891357,1255.968506 
	C675.116821,1255.968506 681.702820,1255.968506 688.682312,1255.968506 
	C683.087402,1237.136108 677.603149,1218.676392 671.924133,1199.435669 
z"/>
<path fill="#FFF004" opacity="1.000000" stroke="none" 
	d="
M1205.843262,954.041321 
	C1205.843262,966.488159 1205.843262,978.441650 1205.843262,990.940735 
	C1197.233154,990.940735 1189.112793,991.063904 1180.999634,990.875610 
	C1178.057007,990.807373 1176.205688,991.669861 1174.350708,994.065247 
	C1164.765625,1006.443359 1154.024414,1018.031738 1145.433716,1031.048584 
	C1133.797241,1048.680542 1117.407959,1061.589233 1103.320557,1076.761230 
	C1102.258667,1077.904907 1100.146973,1078.578247 1098.510498,1078.602417 
	C1087.679565,1078.762085 1076.844849,1078.724976 1066.012329,1078.635376 
	C1064.595703,1078.623657 1063.010742,1078.242432 1061.797607,1077.531250 
	C1047.222290,1068.985840 1033.009766,1059.757935 1018.057129,1051.943115 
	C1008.475037,1046.935059 997.987488,1043.436401 987.601257,1040.255859 
	C978.114807,1037.350830 969.953491,1032.256836 961.566467,1027.371338 
	C960.102295,1026.518433 958.129883,1025.684570 956.588867,1025.956421 
	C947.153687,1027.620850 937.744446,1029.466064 928.384399,1031.515137 
	C911.603149,1035.189087 894.913086,1039.314087 878.046997,1042.526123 
	C875.724609,1042.968384 871.992859,1039.791382 869.975220,1037.395874 
	C861.388794,1027.201660 858.021362,1014.489807 853.766724,1002.207397 
	C845.271484,977.682922 832.682800,955.293030 815.717285,935.785217 
	C804.432800,922.809692 792.165222,910.398438 778.846130,899.568909 
	C766.704895,889.697205 752.789612,881.892822 739.193726,873.971008 
	C731.981873,869.768982 723.777832,867.275208 716.042847,863.960815 
	C714.388733,863.252014 712.809204,862.360962 711.224426,861.500183 
	C705.841431,858.576355 701.733154,853.477844 693.813110,856.394226 
	C689.706726,857.906311 683.956177,854.722351 678.904236,853.947449 
	C669.432068,852.494446 659.666626,852.187500 650.515930,849.636169 
	C642.549255,847.414795 635.145691,842.972595 627.772766,838.993835 
	C626.310364,838.204590 625.456238,835.068970 625.440186,833.006714 
	C625.274658,811.674805 625.241333,790.340332 625.427063,769.008789 
	C625.461365,765.072510 624.052429,763.551208 620.572632,761.677307 
	C610.985474,756.514221 601.880859,750.450867 592.619141,744.689270 
	C587.429016,741.460571 582.405273,737.953796 577.128662,734.877502 
	C569.900757,730.663513 562.028198,727.371460 555.406860,722.388672 
	C552.651794,720.315369 552.156433,714.970276 551.084045,710.991577 
	C549.386047,704.691650 547.979919,698.308167 546.612915,691.925293 
	C545.344971,686.004822 543.389099,680.052429 543.298645,674.090393 
	C542.924438,649.429626 543.141785,624.759827 543.150757,600.093384 
	C543.151001,599.284729 543.247986,598.476135 543.320862,597.340332 
	C792.221558,597.340332 1040.939819,597.340332 1290.241333,597.340332 
	C1290.241333,599.206299 1290.241211,600.980042 1290.241211,602.753845 
	C1290.241333,686.753235 1290.270630,770.752625 1290.104370,854.751709 
	C1290.099243,857.345032 1288.713013,860.573730 1286.880249,862.428955 
	C1262.283813,887.327148 1237.638184,912.181519 1212.629272,936.663391 
	C1207.563843,941.622070 1204.596436,946.498352 1205.843262,954.041321 
z"/>
<path fill="#34425D" opacity="1.000000" stroke="none" 
	d="
M513.653564,1159.166504 
	C511.784851,1191.695557 509.951050,1223.763550 508.106049,1256.027588 
	C500.670776,1256.027588 493.563263,1256.027588 485.825989,1256.027588 
	C481.504333,1242.210815 477.104401,1228.143921 472.475494,1213.344971 
	C469.555237,1222.875732 466.913086,1231.730469 464.116913,1240.536499 
	C462.467743,1245.730103 461.991058,1252.700806 458.379974,1255.458984 
	C454.985840,1258.051392 448.166473,1256.164062 442.854065,1256.237183 
	C441.373322,1256.257568 439.892029,1256.240234 437.950195,1256.240234 
	C436.083618,1222.954590 434.230103,1189.902100 432.352722,1156.424194 
	C437.854340,1156.424194 443.214325,1156.424194 448.997040,1156.424194 
	C449.972595,1182.475220 450.949127,1208.552490 451.925659,1234.629883 
	C452.150513,1234.692383 452.375366,1234.755005 452.600220,1234.817505 
	C453.081238,1233.522339 453.629120,1232.247559 454.032928,1230.928711 
	C458.174896,1217.402954 462.392120,1203.898804 466.341614,1190.316772 
	C467.209534,1187.332031 468.562073,1186.512085 471.556580,1186.573364 
	C479.501556,1186.735718 479.524139,1186.577515 481.815277,1194.180786 
	C485.656433,1206.927490 489.466614,1219.683594 493.303741,1232.431641 
	C493.524780,1233.165894 493.870941,1233.862549 494.722717,1235.975342 
	C495.756287,1208.468750 496.732422,1182.491333 497.727600,1156.006714 
	C502.472961,1156.006714 506.921661,1155.870361 511.347321,1156.128418 
	C512.174988,1156.176758 512.910461,1157.805908 513.653564,1159.166504 
z"/>
<path fill="#34425D" opacity="1.000000" stroke="none" 
	d="
M1010.512329,1160.395630 
	C1021.943115,1166.774536 1024.382690,1176.870483 1022.885742,1188.384766 
	C1021.407043,1199.758179 1013.989136,1205.736816 1002.599792,1208.451782 
	C1009.918091,1212.624023 1012.801453,1219.559570 1016.016174,1226.254395 
	C1020.693787,1235.995605 1025.351562,1245.746216 1030.379395,1256.248535 
	C1023.222473,1256.248535 1016.488037,1256.396240 1009.773621,1256.096680 
	C1008.708252,1256.048950 1007.374268,1254.150269 1006.773132,1252.830200 
	C1002.499023,1243.444336 998.449768,1233.956421 994.196472,1224.560791 
	C990.661621,1216.752197 985.670410,1214.168091 976.622009,1215.445068 
	C976.622009,1228.800781 976.622009,1242.223511 976.622009,1255.936401 
	C970.144348,1255.936401 964.078735,1255.936401 957.809937,1255.936401 
	C957.809937,1222.740967 957.809937,1189.638672 957.809937,1155.844116 
	C975.427002,1157.191162 993.203796,1153.114868 1010.512329,1160.395630 
M976.543640,1194.421631 
	C976.543640,1196.053955 976.543640,1197.686157 976.543640,1199.677979 
	C983.584961,1199.999634 990.201660,1200.481323 996.371277,1197.200806 
	C1001.815796,1194.305908 1004.047302,1189.554199 1003.313477,1182.980835 
	C1002.671082,1177.225830 999.266418,1173.733398 993.863647,1172.834839 
	C988.234375,1171.898560 982.455078,1171.864502 976.543335,1171.421143 
	C976.543335,1179.461060 976.543335,1186.450806 976.543640,1194.421631 
z"/>
<path fill="#34425D" opacity="1.000000" stroke="none" 
	d="
M819.998474,1212.487427 
	C813.522156,1212.487305 807.545715,1212.487305 801.196045,1212.487305 
	C801.196045,1227.080688 801.196045,1241.343384 801.196045,1255.922607 
	C794.767456,1255.922607 788.708618,1255.922607 782.385620,1255.922607 
	C782.385620,1222.857422 782.385620,1189.805542 782.385620,1156.379883 
	C788.389282,1156.379883 794.427246,1156.379883 800.911621,1156.379883 
	C800.911621,1169.428833 800.911621,1182.494507 800.911621,1195.852417 
	C812.405884,1195.852417 823.463867,1195.852417 834.989502,1195.852417 
	C834.989502,1182.771240 834.989502,1169.708984 834.989502,1156.329834 
	C841.487671,1156.329834 847.525940,1156.329834 853.798706,1156.329834 
	C853.798706,1189.549683 853.798706,1222.622314 853.798706,1255.968994 
	C847.704651,1255.968994 841.627258,1255.968994 835.148987,1255.968994 
	C835.148987,1241.619751 835.148987,1227.371704 835.148987,1212.487549 
	C830.016418,1212.487549 825.257385,1212.487549 819.998474,1212.487427 
z"/>
<path fill="#34425D" opacity="1.000000" stroke="none" 
	d="
M672.021545,1199.826172 
	C677.603149,1218.676392 683.087402,1237.136108 688.682312,1255.968506 
	C681.702820,1255.968506 675.116821,1255.968506 667.891357,1255.968506 
	C666.404053,1250.761841 665.005676,1245.155640 663.108521,1239.723633 
	C662.633362,1238.363403 660.579041,1236.685913 659.208496,1236.647339 
	C649.722229,1236.379761 640.222900,1236.612427 630.732178,1236.441162 
	C628.024841,1236.392212 626.925476,1237.425903 626.287048,1239.869507 
	C624.864746,1245.313721 623.236633,1250.704224 621.706543,1256.066650 
	C615.398743,1256.066650 609.452454,1256.066650 603.022949,1256.066650 
	C608.088928,1238.931152 613.063171,1222.090332 618.047363,1205.252441 
	C622.533203,1190.098389 627.119263,1174.972900 631.444702,1159.773315 
	C632.282471,1156.829224 633.462952,1155.789429 636.563354,1155.927124 
	C642.713867,1156.200317 648.890747,1156.164062 655.045288,1155.940552 
	C658.023254,1155.832520 659.366150,1156.673096 660.215881,1159.699585 
	C663.948486,1172.992676 667.992798,1186.198364 672.021545,1199.826172 
M650.162170,1192.290039 
	C648.610840,1186.680908 647.059570,1181.071655 645.508240,1175.462524 
	C645.225098,1175.467407 644.941956,1175.472412 644.658813,1175.477295 
	C640.449829,1190.486206 636.240845,1205.495117 631.996277,1220.630615 
	C640.953857,1220.630615 649.338074,1220.630615 658.093262,1220.630615 
	C655.466614,1211.219116 652.933411,1202.142090 650.162170,1192.290039 
z"/>
<path fill="#35435D" opacity="1.000000" stroke="none" 
	d="
M549.211304,1214.023926 
	C549.211304,1222.486694 549.211304,1230.949585 549.211304,1239.828735 
	C563.273132,1239.828735 576.686096,1239.828735 590.462769,1239.828735 
	C590.462769,1245.444580 590.462769,1250.650879 590.462769,1256.000977 
	C570.469604,1256.000977 550.541138,1256.000977 530.557068,1256.000977 
	C530.557068,1222.662109 530.557068,1189.572388 530.557068,1156.244019 
	C550.373230,1156.244019 569.948303,1156.244019 589.824463,1156.244019 
	C589.824463,1161.538696 589.824463,1166.758911 589.824463,1172.218018 
	C576.595032,1172.218018 563.457458,1172.218018 549.945984,1172.218018 
	C549.945984,1180.344116 549.945984,1188.245239 549.945984,1196.875977 
	C562.050171,1196.875977 574.127014,1196.875977 586.599365,1197.413452 
	C586.996582,1199.775879 586.780945,1201.634399 587.054871,1203.417480 
	C587.397034,1205.643921 588.142273,1207.808472 588.713501,1209.999756 
	C588.016418,1210.812500 587.319397,1211.625244 586.074097,1211.991211 
	C574.192566,1211.399414 562.859375,1211.239380 551.525696,1211.161743 
	C551.053650,1211.158447 550.576355,1211.923340 550.101440,1212.330200 
	C550.073242,1212.615234 549.938538,1212.834961 549.298889,1213.090454 
	C548.803406,1213.291870 548.706177,1213.391968 548.608948,1213.492065 
	C548.809692,1213.669312 549.010498,1213.846680 549.211304,1214.023926 
z"/>
<path fill="#34425D" opacity="1.000000" stroke="none" 
	d="
M934.917969,1158.000244 
	C934.958618,1162.028931 934.999268,1166.057495 934.536621,1170.545654 
	C922.374207,1171.003418 910.711609,1171.162842 899.057617,1170.917725 
	C894.627563,1170.824585 892.570374,1171.947876 892.920654,1176.772095 
	C893.281616,1181.742554 892.988892,1186.759766 893.003967,1191.756470 
	C893.021484,1197.536987 894.460876,1198.965454 900.454590,1198.990723 
	C909.115479,1199.027344 917.792480,1199.313965 926.431641,1198.878784 
	C931.375549,1198.629761 932.229492,1200.590332 932.112915,1204.897705 
	C932.005859,1208.853760 931.964478,1211.404053 926.642273,1211.137207 
	C917.006165,1210.653809 907.327148,1211.086792 897.668518,1210.956421 
	C894.230957,1210.910156 892.882385,1212.204834 892.957397,1215.657104 
	C893.109253,1222.649292 893.073975,1229.648071 892.976318,1236.642212 
	C892.919861,1240.690063 894.635376,1242.181152 898.731262,1242.073242 
	C907.719177,1241.836426 916.718201,1241.939941 925.711792,1242.016724 
	C934.976685,1242.095703 933.691956,1240.606567 934.094421,1250.161011 
	C934.272339,1254.386108 932.586731,1255.107544 928.877197,1255.068970 
	C913.222351,1254.905884 897.562744,1254.860107 881.909668,1255.094971 
	C877.820435,1255.156250 876.905396,1253.777588 876.923584,1249.949707 
	C877.061523,1220.968994 877.067139,1191.987183 876.918091,1163.006592 
	C876.898010,1159.100342 877.945862,1157.863525 881.953247,1157.910522 
	C899.606079,1158.118042 917.262756,1158.000244 934.917969,1158.000244 
z"/>
<path fill="#35435D" opacity="1.000000" stroke="none" 
	d="
M722.758667,1172.074707 
	C713.785645,1172.074707 704.812622,1172.074707 695.458557,1172.074707 
	C695.458557,1166.603149 695.458557,1161.706055 695.458557,1156.400146 
	C719.802612,1156.400146 744.362183,1156.400146 769.180420,1156.400146 
	C769.180420,1161.200439 769.180420,1166.141846 769.180420,1171.788086 
	C760.386292,1171.788086 751.633728,1171.788086 742.025757,1171.986084 
	C740.780151,1174.023315 740.055603,1175.861694 740.050415,1177.702148 
	C739.976379,1203.821167 739.999817,1229.940674 739.999756,1256.060059 
	C734.975464,1256.110107 729.951172,1256.160156 724.464722,1255.671875 
	C724.002502,1229.273560 724.027588,1203.413574 723.948853,1177.553955 
	C723.943298,1175.726318 723.173279,1173.901123 722.758667,1172.074707 
z"/>
<path fill="#35435D" opacity="1.000000" stroke="none" 
	d="
M934.965820,1157.561890 
	C917.262756,1158.000244 899.606079,1158.118042 881.953247,1157.910522 
	C877.945862,1157.863525 876.898010,1159.100342 876.918091,1163.006592 
	C877.067139,1191.987183 877.061523,1220.968994 876.923584,1249.949707 
	C876.905396,1253.777588 877.820435,1255.156250 881.909668,1255.094971 
	C897.562744,1254.860107 913.222351,1254.905884 928.877197,1255.068970 
	C932.586731,1255.107544 934.272339,1254.386108 934.094421,1250.161011 
	C933.691956,1240.606567 934.976685,1242.095703 925.711792,1242.016724 
	C916.718201,1241.939941 907.719177,1241.836426 898.731262,1242.073242 
	C894.635376,1242.181152 892.919861,1240.690063 892.976318,1236.642212 
	C893.073975,1229.648071 893.109253,1222.649292 892.957397,1215.657104 
	C892.882385,1212.204834 894.230957,1210.910156 897.668518,1210.956421 
	C907.327148,1211.086792 917.006165,1210.653809 926.642273,1211.137207 
	C931.964478,1211.404053 932.005859,1208.853760 932.112915,1204.897705 
	C932.229492,1200.590332 931.375549,1198.629761 926.431641,1198.878784 
	C917.792480,1199.313965 909.115479,1199.027344 900.454590,1198.990723 
	C894.460876,1198.965454 893.021484,1197.536987 893.003967,1191.756470 
	C892.988892,1186.759766 893.281616,1181.742554 892.920654,1176.772095 
	C892.570374,1171.947876 894.627563,1170.824585 899.057617,1170.917725 
	C910.711609,1171.162842 922.374207,1171.003418 934.499756,1171.007324 
	C933.664673,1171.413574 932.365723,1172.159058 931.061157,1172.168945 
	C919.106995,1172.259277 907.151794,1172.222046 894.920166,1172.222046 
	C894.920166,1180.550293 894.920166,1188.465698 894.920166,1196.765381 
	C907.918640,1196.765381 920.685425,1196.765381 933.698486,1196.765381 
	C933.698486,1202.073242 933.698486,1207.001953 933.698486,1212.343750 
	C920.949951,1212.343750 908.175964,1212.343750 895.022461,1212.343750 
	C895.022461,1221.634766 895.022461,1230.529541 895.022461,1239.857666 
	C908.328552,1239.857666 921.751526,1239.857666 935.523071,1239.857666 
	C935.523071,1245.348877 935.523071,1250.431274 935.523071,1255.883301 
	C915.827393,1255.883301 895.954712,1255.883301 875.730042,1255.883301 
	C875.730042,1222.832886 875.730042,1189.655396 875.730042,1156.006226 
	C884.295349,1156.006226 892.741821,1156.006226 901.188354,1156.006226 
	C911.015320,1156.006226 920.842773,1155.960571 930.668823,1156.056030 
	C932.120422,1156.070068 933.565552,1156.751099 934.965820,1157.561890 
z"/>
<path fill="#34425D" opacity="1.000000" stroke="none" 
	d="
M740.253357,1256.131836 
	C739.999817,1229.940674 739.976379,1203.821167 740.050415,1177.702148 
	C740.055603,1175.861694 740.780151,1174.023315 741.563110,1172.085205 
	C741.951721,1199.028687 741.947510,1226.070923 741.654175,1253.765015 
	C741.243286,1254.950195 741.121643,1255.483643 741.000000,1256.016968 
	C740.835632,1256.079102 740.671326,1256.141357 740.253357,1256.131836 
z"/>
<path fill="#34425D" opacity="1.000000" stroke="none" 
	d="
M722.727783,1172.537842 
	C723.173279,1173.901123 723.943298,1175.726318 723.948853,1177.553955 
	C724.027588,1203.413574 724.002502,1229.273560 724.001587,1255.607422 
	C723.550659,1254.867065 722.710754,1253.653564 722.708008,1252.438110 
	C722.648193,1225.959106 722.681458,1199.479980 722.727783,1172.537842 
z"/>
<path fill="#34425D" opacity="1.000000" stroke="none" 
	d="
M550.561646,1212.377441 
	C550.576355,1211.923340 551.053650,1211.158447 551.525696,1211.161743 
	C562.859375,1211.239380 574.192566,1211.399414 585.791016,1211.882568 
	C574.378113,1212.288696 562.700012,1212.356689 550.561646,1212.377441 
z"/>
<path fill="#34425D" opacity="1.000000" stroke="none" 
	d="
M588.798096,1209.543701 
	C588.142273,1207.808472 587.397034,1205.643921 587.054871,1203.417480 
	C586.780945,1201.634399 586.996582,1199.775879 586.992432,1197.491455 
	C587.630066,1197.821777 588.768860,1198.579346 588.822266,1199.406982 
	C589.029541,1202.621826 588.891968,1205.858887 588.798096,1209.543701 
z"/>
<path fill="#35435D" opacity="1.000000" stroke="none" 
	d="
M741.324219,1255.963135 
	C741.121643,1255.483643 741.243286,1254.950195 741.569397,1254.229492 
	C741.732056,1254.664429 741.690247,1255.286865 741.324219,1255.963135 
z"/>
<path fill="#34425D" opacity="1.000000" stroke="none" 
	d="
M549.293335,1213.800293 
	C549.010498,1213.846680 548.809692,1213.669312 548.608948,1213.492065 
	C548.706177,1213.391968 548.803406,1213.291870 549.108398,1213.147705 
	C549.316284,1213.103760 549.375427,1213.576538 549.293335,1213.800293 
z"/>
<path fill="#FFFFFF" opacity="1.000000" stroke="none" 
	d="
M976.543457,1193.931030 
	C976.543335,1186.450806 976.543335,1179.461060 976.543335,1171.421143 
	C982.455078,1171.864502 988.234375,1171.898560 993.863647,1172.834839 
	C999.266418,1173.733398 1002.671082,1177.225830 1003.313477,1182.980835 
	C1004.047302,1189.554199 1001.815796,1194.305908 996.371277,1197.200806 
	C990.201660,1200.481323 983.584961,1199.999634 976.543640,1199.677979 
	C976.543640,1197.686157 976.543640,1196.053955 976.543457,1193.931030 
z"/>
<path fill="#FFFFFF" opacity="1.000000" stroke="none" 
	d="
M650.281128,1192.677612 
	C652.933411,1202.142090 655.466614,1211.219116 658.093262,1220.630615 
	C649.338074,1220.630615 640.953857,1220.630615 631.996277,1220.630615 
	C636.240845,1205.495117 640.449829,1190.486206 644.658813,1175.477295 
	C644.941956,1175.472412 645.225098,1175.467407 645.508240,1175.462524 
	C647.059570,1181.071655 648.610840,1186.680908 650.281128,1192.677612 
z"/>
</svg>